inDegrees=no
num_controls=7
num_derivatives=13
num_iterations=99
num_multipliers=7
num_parameters=0
num_slacks=7
num_states=26
objective=5.744913
objective_accelerations=0.339653
objective_balance=0.030944
objective_effort=0.403508
objective_height=4.948387
objective_ligament=0.022420
solver_duration=853.089741
status=Solve_Succeeded
success=true
DataType=double
version=3
OpenSimVersion=4.4-2022-07-23-0e9fedc
endheader
time	/jointset/ground_pelvis/pelvis_tilt/value	/jointset/ground_pelvis/pelvis_tx/value	/jointset/ground_pelvis/pelvis_ty/value	/jointset/hip_r/hip_flexion_r/value	/jointset/hip_r/hip_adduction_r/value	/jointset/hip_r/hip_rotation_r/value	/jointset/back/lumbar_extension/value	/jointset/patellofemoral_r/patellar_flexion_r/value	/jointset/knee_r/knee_flexion_r/value	/jointset/knee_r/knee_adduction_r/value	/jointset/knee_r/knee_rotation_r/value	/jointset/ankle_r/ankle_angle_r/value	/jointset/subtalar_r/subtalar_angle_r/value	/jointset/ground_pelvis/pelvis_tilt/speed	/jointset/ground_pelvis/pelvis_tx/speed	/jointset/ground_pelvis/pelvis_ty/speed	/jointset/hip_r/hip_flexion_r/speed	/jointset/hip_r/hip_adduction_r/speed	/jointset/hip_r/hip_rotation_r/speed	/jointset/back/lumbar_extension/speed	/jointset/patellofemoral_r/patellar_flexion_r/speed	/jointset/knee_r/knee_flexion_r/speed	/jointset/knee_r/knee_adduction_r/speed	/jointset/knee_r/knee_rotation_r/speed	/jointset/ankle_r/ankle_angle_r/speed	/jointset/subtalar_r/subtalar_angle_r/speed	/forceset/tau_hip_flexion_r	/forceset/tau_hip_adduction_r	/forceset/tau_hip_rotation_r	/forceset/tau_knee_flexion_r	/forceset/tau_ankle_angle_r	/forceset/tau_subtalar_angle_r	/forceset/tau_lumbar_extension	lambda_cid13_p0	lambda_cid14_p0	lambda_cid14_p1	lambda_cid14_p2	lambda_cid14_p3	lambda_cid14_p4	lambda_cid14_p5	/jointset/ground_pelvis/pelvis_tilt/accel	/jointset/ground_pelvis/pelvis_tx/accel	/jointset/ground_pelvis/pelvis_ty/accel	/jointset/hip_r/hip_flexion_r/accel	/jointset/hip_r/hip_adduction_r/accel	/jointset/hip_r/hip_rotation_r/accel	/jointset/back/lumbar_extension/accel	/jointset/patellofemoral_r/patellar_flexion_r/accel	/jointset/knee_r/knee_flexion_r/accel	/jointset/knee_r/knee_adduction_r/accel	/jointset/knee_r/knee_rotation_r/accel	/jointset/ankle_r/ankle_angle_r/accel	/jointset/subtalar_r/subtalar_angle_r/accel	gamma_cid13_p0	gamma_cid14_p0	gamma_cid14_p1	gamma_cid14_p2	gamma_cid14_p3	gamma_cid14_p4	gamma_cid14_p5
1	-0.1297873535390842	0.05534352435618248	0.7780399693406601	0.9635283465979838	-0.2368095667200305	-0.08052451130608365	-0.4361928784577176	1.079011644371519	1.079011644372376	-0.01551757604423571	0.1745156687925215	0.4363160424478316	0.1031725986348095	-0.001546782153467105	0.005777036131540247	0.01234455358378993	-0.03669917800070604	0.002673206116397495	-0.01251462140102756	0.01223554732320854	-0.04720479599705125	-0.04720479599703538	-0.002522076735550573	-0.000470029063816391	-0.009893032930423963	0.001025594520482549	-0.1637632283185388	0.02653013785149436	0.01463480640641083	-0.4342736339564743	-0.05100455147030317	0.00450208985881241	0.2221117773114129	-7.033040439269941	-63.20018114179371	-8.82605510440238	1.542022756707203	19.88746247445299	-764.8608907859472	56.79205915507831	0.6930942730519706	0.01039779624738043	1.109370045318299	-3.431775315047275	0.09173066441930613	-0.4710726293833929	0.5645797888964112	-4.191129732655033	-4.1911297326568	0.6178425538360427	-0.001772437456551111	-1.654403765927674	-0.4743348812256374	9.371820363030638e-10	-1.137289068280652e-09	3.374582700322052e-09	7.666986147254367e-09	4.203636385315557e-09	-2.783650941090699e-09	1.938104108121666e-09
1.01	-0.1297691415751274	0.05540191298984907	0.7782186912785743	0.9629909152022526	-0.2367784590647608	-0.08067275900705545	-0.4360405540493353	1.078330408842999	1.078330408843369	-0.01551122784933408	0.1745110637956997	0.4361345112546551	0.1031588120502956	0.00514655509304048	0.005912024122786461	0.02339282490454113	-0.07075231838781966	0.003543604654416158	-0.01713902506364269	0.01834217854921947	-0.08903862480606503	-0.08903862480602652	0.003796307890832789	-0.0004409741150269948	-0.02640260447697718	-0.003785955210963791	-0.1641776082765283	0.02648881100982332	0.01462721916640871	-0.4336768420389017	-0.05142022369717365	0.004592298759558996	0.2225402209745549	-7.073009899357124	-63.32445493317247	-8.786830584845228	1.51086130061943	19.83276947454845	-764.916643868457	56.82885952172385	0.6510611177300316	0.01674994345644419	1.101503394651792	-3.386865463900761	0.0839895878476843	-0.4587383297303937	0.6506314184063094	-4.1789571228887	-4.1789571228843	0.6395256601813445	0.006747627301303534	-1.647644031929639	-0.4850187239307268	2.005108933673871e-09	1.969393594564418e-10	4.096991190222755e-09	1.827325539447194e-08	3.092682621254592e-09	-4.564969034528433e-09	1.760083732526541e-09
1.02	-0.1296852747052065	0.05546199163200598	0.7785076854735322	0.9621139959900137	-0.2367387883962654	-0.08086737356362497	-0.4358237780028528	1.077230945492813	1.077230945492677	-0.01544155795958791	0.1745070499816639	0.4357882023093833	0.1030968192275	0.01158419903067154	0.006115037829606786	0.0343990049929363	-0.1045967413092898	0.004385808766606825	-0.02178799252746056	0.02512587493330461	-0.1308503603296581	-0.1308503603295791	0.01014226224289692	-0.0003517925160591644	-0.0428485833399555	-0.008615653135469071	-0.1645919882344463	0.02644748416821443	0.01461963192674381	-0.4330800501213138	-0.05183589592402722	0.004682507660410239	0.2229686646377728	-7.13797488554899	-63.45901648924384	-8.743269076313039	1.471997053507518	19.79629701986468	-765.1401761809908	56.89566460420153	0.6419556112773299	0.02400293936165027	1.100951798847069	-3.390031821918438	0.0860917792537013	-0.4759853896240236	0.6999928205113648	-4.186711075570848	-4.186711075569035	0.6233564989721553	0.01025289257930562	-1.641685229213484	-0.4779645198377363	2.968303130118793e-09	7.11458698791498e-10	-4.007371469703827e-10	2.755467600905994e-08	3.649908715293563e-09	-5.768258149901939e-09	-4.162707228243675e-09
1.03	-0.1295383117965141	0.05552445651902162	0.7789064748171308	0.9608997480756077	-0.2366908271456147	-0.08110847488295504	-0.4355357538368156	1.075713587056122	1.075713587055954	-0.01530823645735757	0.1745041119282839	0.4352778013609006	0.1029864889257721	0.01776276015302402	0.006390917939125276	0.04534583984527216	-0.1382075129934033	0.005202831946360767	-0.02642270148684091	0.03259800990327607	-0.1726059204165083	-0.1726059204164989	0.01653255414669081	-0.0002383955752271097	-0.05921597760764741	-0.01344818508027392	-0.1648173750562693	0.02636033906644432	0.01462114949923978	-0.4322560823489842	-0.05202512591640869	0.004714735770711971	0.2232307575721493	-7.228233169384115	-63.50078872591607	-8.71070340045142	1.437240529669764	19.69753665349269	-764.9854187686667	56.90401272046469	0.5989638765522008	0.03132814805411614	1.08959434577359	-3.339799837675856	0.07897214912437325	-0.455773791931349	0.7886815801129995	-4.167668278169558	-4.167668278181475	0.6484423993078432	0.01150323266261639	-1.631922415918376	-0.4855605566614711	3.93042862553386e-09	1.217613659673468e-09	-4.951732186480833e-09	3.682257776004969e-08	4.224157052782543e-09	-6.965649010397237e-09	-1.014411829702591e-08
